0
SECTION
2
HEADER
9
$INSUNITS
70
4
9
$ACADVER
1
AC1014
9
$HANDSEED
5
FFFF
0
ENDSEC
0
SECTION
2
TABLES
0
TABLE
2
VPORT
5
8
100
AcDbSymbolTable
0
ENDTAB
0
TABLE
2
LTYPE
5
5
100
AcDbSymbolTable
0
LTYPE
5
14
100
AcDbSymbolTableRecord
100
AcDbLinetypeTableRecord
2
BYBLOCK
70
0
0
LTYPE
5
15
100
AcDbSymbolTableRecord
100
AcDbLinetypeTableRecord
2
BYLAYER
70
0
0
ENDTAB
0
TABLE
2
LAYER
5
2
100
AcDbSymbolTable
70
2
0
LAYER
5
50
100
AcDbSymbolTableRecord
100
AcDbLayerTableRecord
2
0
70
0
6
CONTINUOUS
0
ENDTAB
0
TABLE
2
STYLE
5
3
100
AcDbSymbolTable
70
1
0
STYLE
5
11
100
AcDbSymbolTableRecord
100
AcDbTextStyleTableRecord
2
STANDARD
70
0
0
ENDTAB
0
TABLE
2
VIEW
5
6
100
AcDbSymbolTable
70
0
0
ENDTAB
0
TABLE
2
UCS
5
7
100
AcDbSymbolTable
70
0
0
ENDTAB
0
TABLE
2
APPID
5
9
100
AcDbSymbolTable
70
2
0
APPID
5
12
100
AcDbSymbolTableRecord
100
AcDbRegAppTableRecord
2
ACAD
70
0
0
ENDTAB
0
TABLE
2
DIMSTYLE
5
A
100
AcDbSymbolTable
70
1
0
ENDTAB
0
TABLE
2
BLOCK_RECORD
5
1
100
AcDbSymbolTable
70
1
0
BLOCK_RECORD
5
1F
100
AcDbSymbolTableRecord
100
AcDbBlockTableRecord
2
*MODEL_SPACE
0
BLOCK_RECORD
5
1B
100
AcDbSymbolTableRecord
100
AcDbBlockTableRecord
2
*PAPER_SPACE
0
ENDTAB
0
ENDSEC
0
SECTION
2
BLOCKS
0
BLOCK
5
20
100
AcDbEntity
100
AcDbBlockBegin
2
*MODEL_SPACE
0
ENDBLK
5
21
100
AcDbEntity
100
AcDbBlockEnd
0
BLOCK
5
1C
100
AcDbEntity
100
AcDbBlockBegin
2
*PAPER_SPACE
0
ENDBLK
5
1D
100
AcDbEntity
100
AcDbBlockEnd
0
ENDSEC
0
SECTION
2
ENTITIES
0
LWPOLYLINE
5
100
100
AcDbEntity
8
0
100
AcDbPolyline
90
78
70
1
43
0.0
10
90.836742723734204
20
105.53165619619223
42
-0.31783724519557061
10
93.112885098648221
20
105.92218048794419
42
0.31783724519569728
10
97.665169848477561
20
106.70322907144943
42
0.41421356237801105
10
97.665169848476268
20
112.36008332094052
10
93.422529161405791
20
116.60272400801092
10
61.602724008011066
20
148.42252916140566
10
57.360083320892265
20
152.66516984852541
42
0.41421356237305873
10
51.703229071399271
20
152.66516984852572
42
0.30715139032717448
10
50.857805813162699
20
148.25471131970937
42
-0.30715139032800981
10
50.435094184047166
20
146.04948205529578
10
30.03464561716379
20
125.64903348841598
42
-0.30715139032687683
10
27.829416352757121
20
125.22632185930094
42
0.54663414924231735
10
22.24849924374994
20
121.45806216054949
42
-0.49765166959577378
10
15.99995205003869
20
116.49880585769344
42
0.063251116394776805
10
15
20
116.62581013117587
10
0
20
116.62581013117581
10
-15
20
116.62581013117583
42
0.06325111639477736
10
-15.999952050038697
20
116.49880585769344
42
-0.49765166959577173
10
-22.248499243749947
20
121.4580621605495
42
0.54663414924231502
10
-27.829416352756084
20
125.22632185929862
42
-0.30715139032775546
10
-30.034645617170106
20
125.6490334884187
10
-50.435094184042953
20
146.04948205529996
42
-0.30715139032745964
10
-50.857805813162685
20
148.25471131970932
42
0.30715139032716399
10
-51.703229071399257
20
152.66516984852575
42
0.41421356237305457
10
-57.360083320891782
20
152.66516984852498
10
-61.602724008011066
20
148.42252916140563
10
-97.665169848476253
20
112.3600833209405
42
0.41421356237295154
10
-97.665169848477561
20
106.70322907144944
42
0.3178372451956995
10
-93.112885098648221
20
105.92218048794422
42
-0.31783724519556111
10
-90.836742723734204
20
105.53165619619227
10
-70.714098515746372
20
85.409011988204426
42
-0.32121454592206067
10
-70.334274823524154
20
83.110812945676741
42
0.38539050893880417
10
-68.78199658009602
20
77.669170552001191
42
-0.037210980401661251
10
-68.302145499477348
20
77.318121355129193
42
-0.077548989627943779
10
-67.900164365757675
20
76.850457550045206
42
-0.28497115539091994
10
-67.900164365810639
20
-76.850457550022469
42
-0.077548989627121964
10
-68.302145499472488
20
-77.318121355135077
42
-0.037210980400645882
10
-68.78199658005569
20
-77.669170552050673
42
0.38539050893894194
10
-70.334274823529185
20
-83.110812945676741
42
-0.32121454592191667
10
-70.714098515746372
20
-85.409011988204426
10
-90.836742723734204
20
-105.53165619619227
42
-0.31783724519556722
10
-93.112885098648235
20
-105.92218048794422
42
0.3178372451920658
10
-97.665169848477561
20
-106.70322907144944
42
0.41421356237800921
10
-97.665169848427368
20
-112.36008332089163
10
-93.422529161405791
20
-116.60272400801092
10
-61.602724008011052
20
-148.42252916140563
10
-57.360083320892265
20
-152.66516984852541
42
0.4142135623731088
10
-51.703229071400216
20
-152.66516984852575
42
0.30715139032721184
10
-50.85780581316272
20
-148.25471131970932
42
-0.3071513903271253
10
-50.435094184044694
20
-146.04948205530164
10
-30.03464561716504
20
-125.64903348841472
42
-0.30715139032678446
10
-27.829416352757068
20
-125.22632185929902
42
0.49789791002115025
10
-22.280909061365897
20
-122.0692587007661
42
-0.16717427741002913
10
-21.702333780711403
20
-120.90395192195741
42
-0.41027616398298566
10
21.702333780715822
20
-120.90395192196178
42
-0.16717427740077451
10
22.28090906136055
20
-122.06925870069831
42
0.49789791000336314
10
27.829416352759459
20
-125.22632185930469
42
-0.3071513903260682
10
30.034645617161416
20
-125.64903348841837
10
50.435094184042953
20
-146.04948205529996
42
-0.30715139032745986
10
50.857805813162678
20
-148.25471131970932
42
0.30715139032721217
10
51.703229071400216
20
-152.66516984852575
42
0.4142135623730086
10
57.360083320891782
20
-152.66516984852493
10
61.602724008011052
20
-148.42252916140563
10
93.422529161405791
20
-116.60272400801092
10
97.665169848476239
20
-112.36008332094052
42
0.41421356237295431
10
97.665169848477547
20
-106.70322907144943
42
0.31783724519569445
10
93.112885098648221
20
-105.92218048794419
42
-0.31783724519556833
10
90.836742723734233
20
-105.53165619619223
10
70.714098515746372
20
-85.409011988204497
42
-0.32121454592192505
10
70.334274823529199
20
-83.110812945676741
42
0.3853905089389425
10
68.781996580088588
20
-77.669170551997865
42
-0.037210980400645882
10
68.302145499472374
20
-77.318121355135219
42
-0.077548989627123532
10
67.900164365757632
20
-76.850457550055324
42
-0.28497115539091977
10
67.900164365803036
20
76.850457550017026
42
-0.077548989625822004
10
68.30214549947803
20
77.318121355128355
42
-0.037210980400313239
10
68.781996580055676
20
77.669170552040384
42
0.38539050893972404
10
70.33427482352414
20
83.110812945676741
42
-0.32121454592206411
10
70.7140985157464
20
85.409011988204426
0
CIRCLE
5
101
100
AcDbEntity
8
0
100
AcDbCircle
10
15.250000000000004
20
-15.250000000000004
30
0
40
1.5000000000000002
0
LINE
5
102
100
AcDbEntity
8
0
100
AcDbLine
10
-34.357221861951373
20
-87.235901518391557
30
0
11
-27.286154050085898
21
-80.164833706526082
31
0
0
CIRCLE
5
103
100
AcDbEntity
8
0
100
AcDbCircle
10
-9.9999999999999982
20
10
30
0
40
1.0000000000000004
0
ARC
5
104
100
AcDbEntity
8
0
100
AcDbCircle
10
26.225493878306079
20
-81.225493878305898
30
0
40
1.4999999999999971
100
AcDbArc
50
44.999999999999901
51
224.99999999999989
0
LWPOLYLINE
5
105
100
AcDbEntity
8
0
100
AcDbPolyline
90
4
70
1
43
0.0
10
32.235901518391763
20
89.357221861951203
10
25.16483370652626
20
82.286154050085756
42
0.99999999999999989
10
27.286154050085862
20
80.164833706526082
10
34.357221861951366
20
87.2359015183916
42
0.99999999999999989
0
ARC
5
106
100
AcDbEntity
8
0
100
AcDbCircle
10
-33.296561690171551
20
-88.296561690171387
30
0
40
1.5000000000000062
100
AcDbArc
50
134.9999999999998
51
315.00000000000034
0
LWPOLYLINE
5
107
100
AcDbEntity
8
0
100
AcDbPolyline
90
4
70
1
43
0.0
10
30.114581174832082
20
91.478542205510848
42
0.99999999999999989
10
27.99326083127248
20
93.599862549070494
10
20.922193019406983
20
86.528794737204976
42
0.99999999999999989
10
23.043513362966586
20
84.407474393645344
0
LWPOLYLINE
5
108
100
AcDbEntity
8
0
100
AcDbPolyline
90
4
70
1
43
0.0
10
36.478542205511033
20
85.114581174831926
10
29.407474393645536
20
78.043513362966422
42
0.99999999999999989
10
31.52879473720521
20
75.922193019406791
10
38.599862549070636
20
82.993260831272281
42
0.99999999999999989
0
CIRCLE
5
109
100
AcDbEntity
8
0
100
AcDbCircle
10
-15.250000000000004
20
15.250000000000004
30
0
40
1.5000000000000002
0
LINE
5
110
100
AcDbEntity
8
0
100
AcDbLine
10
-30.114581174832079
20
91.478542205510848
30
0
11
-23.043513362966625
21
84.407474393645344
31
0
0
CIRCLE
5
111
100
AcDbEntity
8
0
100
AcDbCircle
10
9.9999999999999982
20
-9.9999999999999982
30
0
40
1.0000000000000004
0
CIRCLE
5
112
100
AcDbEntity
8
0
100
AcDbCircle
10
10
20
10.000000000000002
30
0
40
1.0000000000000004
0
CIRCLE
5
113
100
AcDbEntity
8
0
100
AcDbCircle
10
15.250000000000004
20
15.250000000000004
30
0
40
1.5000000000000002
0
CIRCLE
5
114
100
AcDbEntity
8
0
100
AcDbCircle
10
-10
20
-10
30
0
40
1.0000000000000004
0
CIRCLE
5
115
100
AcDbEntity
8
0
100
AcDbCircle
10
-15.250000000000004
20
-15.250000000000004
30
0
40
1.5000000000000002
0
LINE
5
116
100
AcDbEntity
8
0
100
AcDbLine
10
-25.164833706526256
20
-82.286154050085713
30
0
11
-32.235901518391721
21
-89.357221861951203
31
0
0
LWPOLYLINE
5
117
100
AcDbEntity
8
0
100
AcDbPolyline
90
4
70
1
43
0.0
10
-31.528794737205175
20
75.922193019406791
10
-38.59986254907065
20
82.993260831272323
42
-0.99999999999999989
10
-36.478542205510998
20
85.114581174831926
10
-29.407474393645529
20
78.043513362966422
42
-0.99999999999999989
0
ARC
5
118
100
AcDbEntity
8
0
100
AcDbCircle
10
-26.225493878306079
20
81.225493878305898
30
0
40
1.4999999999999971
100
AcDbArc
50
-135.00000000000011
51
44.999999999999901
0
LINE
5
119
100
AcDbEntity
8
0
100
AcDbLine
10
-29.407474393645533
20
-78.043513362966422
30
0
11
-36.478542205511005
21
-85.114581174831926
31
0
0
SPLINE
5
120
100
AcDbEntity
8
0
100
AcDbSpline
70
1064
71
3
72
9
73
5
74
0
42
0.000000001
43
0.0000000001
44
0.0000000001
40
0
40
0
40
0
40
0
40
0.18250201668343882
40
0.25121036317658679
40
0.25121036317658679
40
0.25121036317658679
40
0.25121036317658679
10
10.907968749999995
20
90.22414084851745
30
0
10
10.624814543133541
20
89.685436308553648
30
0
10
10.235058460244431
20
88.943920321012996
30
0
10
9.8010799338492021
20
88.227661434103041
30
0
10
9.6823828124999949
20
88.03175803601745
30
0
0
ARC
5
121
100
AcDbEntity
8
0
100
AcDbCircle
10
-29.053921003052263
20
92.539202377290678
30
0
40
1.4999999999999971
100
AcDbArc
50
44.999999999999901
51
225.0000000000004
0
LWPOLYLINE
5
122
100
AcDbEntity
8
0
100
AcDbPolyline
90
8
70
1
43
0.0
10
-7.4999999999999964
20
-41.499999776482575
10
-7.4999999999999947
20
-38.499999776482582
42
0.41421356237309664
10
-8.5
20
-37.499999776482575
10
-11.500000000000002
20
-37.499999776482575
42
0.41421356237309503
10
-12.500000000000002
20
-38.499999776482582
10
-12.500000000000004
20
-41.499999776482575
42
0.41421356237309698
10
-11.500000000000002
20
-42.499999776482575
10
-8.4999999999999982
20
-42.499999776482575
42
0.41421356237309598
0
LWPOLYLINE
5
123
100
AcDbEntity
8
0
100
AcDbPolyline
90
8
70
1
43
0.0
10
-17.499999999999996
20
-38.499999776482582
42
0.41421356237309825
10
-18.5
20
-37.499999776482575
10
-21.5
20
-37.499999776482582
42
0.41421356237309764
10
-22.500000000000004
20
-38.499999776482582
10
-22.499999999999996
20
-41.499999776482575
42
0.41421356237310025
10
-21.5
20
-42.499999776482575
10
-18.5
20
-42.499999776482582
42
0.4142135623730957
10
-17.499999999999996
20
-41.499999776482575
0
LWPOLYLINE
5
124
100
AcDbEntity
8
0
100
AcDbPolyline
90
4
70
1
43
0.0
10
-30.11458117483209
20
-91.478542205510848
42
0.99999999999999989
10
-27.993260831272444
20
-93.599862549070494
10
-20.922193019406969
20
-86.528794737204976
42
0.99999999999999989
10
-23.043513362966618
20
-84.407474393645344
0
LINE
5
125
100
AcDbEntity
8
0
100
AcDbLine
10
29.407474393645533
20
-78.043513362966422
30
0
11
36.478542205511005
21
-85.114581174831926
31
0
0
ARC
5
126
100
AcDbEntity
8
0
100
AcDbCircle
10
-37.539202377290827
20
-84.053921003052096
30
0
40
1.4999999999999971
100
AcDbArc
50
135
51
314.99999999999977
0
ARC
5
127
100
AcDbEntity
8
0
100
AcDbCircle
10
37.539202377290835
20
-84.053921003052125
30
0
40
1.4999999999999907
100
AcDbArc
50
-135.00000000000077
51
44.999999999999233
0
LINE
5
128
100
AcDbEntity
8
0
100
AcDbLine
10
9.6823828124999949
20
88.03175803601745
30
0
11
6.9528906249999975
21
88.031758036017436
31
0
0
LWPOLYLINE
5
129
100
AcDbEntity
8
0
100
AcDbPolyline
90
8
70
1
43
0.0
10
1.5000000000000002
20
-37.499999776482575
10
-1.5
20
-37.499999776482575
42
0.41421356237309326
10
-2.5000000000000027
20
-38.499999776482582
10
-2.5000000000000022
20
-41.499999776482575
42
0.41421356237309659
10
-1.5000000000000002
20
-42.499999776482575
10
1.5000000000000013
20
-42.499999776482575
42
0.41421356237309631
10
2.500000000000004
20
-41.499999776482575
10
2.5000000000000027
20
-38.499999776482582
42
0.41421356237309814
0
LINE
5
130
100
AcDbEntity
8
0
100
AcDbLine
10
12.118906249999997
20
92.39699241101745
30
0
11
13.490976562499997
21
89.828633036017436
31
0
0
LINE
5
131
100
AcDbEntity
8
0
100
AcDbLine
10
-9.0822656249999998
20
94.98000022351745
30
0
11
-9.0822656249999998
21
94.96535178601745
31
0
0
LINE
5
132
100
AcDbEntity
8
0
100
AcDbLine
10
-8.3449609375000016
20
94.94093772351745
30
0
11
-5.9475000000000025
21
94.94093772351745
31
0
0
LINE
5
133
100
AcDbEntity
8
0
100
AcDbLine
10
-5.3322656250000025
20
93.84718772351745
30
0
11
-5.2492578125000025
21
93.74953147351745
31
0
0
SPLINE
5
134
100
AcDbEntity
8
0
100
AcDbSpline
70
1064
71
3
72
9
73
5
74
0
42
0.000000001
43
0.0000000001
44
0.0000000001
40
0
40
0
40
0
40
0
40
0.016217444159650232
40
0.050899594235587931
40
0.050899594235587931
40
0.050899594235587931
40
0.050899594235587931
10
-11.924062500000005
20
88.080586161017436
30
0
10
-11.970937502407612
20
88.108383836448368
30
0
10
-12.118058009119494
20
88.195628804656621
30
0
10
-12.21467474838132
20
88.339202623947756
30
0
10
-12.280507812500003
20
88.437031473517436
30
0
0
LINE
5
135
100
AcDbEntity
8
0
100
AcDbLine
10
-3.4426171875000029
20
92.22609397351745
30
0
11
-3.7111718750000029
21
92.24074241101745
31
0
0
LINE
5
136
100
AcDbEntity
8
0
100
AcDbLine
10
14.911874999999997
20
88.046406473517436
30
0
11
14.897226562499997
21
88.031758036017436
31
0
0
LINE
5
137
100
AcDbEntity
8
0
100
AcDbLine
10
-2.2023828125000025
20
92.24074241101745
30
0
11
-3.1789453125000029
21
92.24074241101745
31
0
0
LINE
5
138
100
AcDbEntity
8
0
100
AcDbLine
10
-4.4533593750000025
20
92.24074241101745
30
0
11
-4.4533593750000025
21
92.22609397351745
31
0
0
LINE
5
139
100
AcDbEntity
8
0
100
AcDbLine
10
-38.599862549070643
20
-82.993260831272281
30
0
11
-31.528794737205175
21
-75.922193019406791
31
0
0
ARC
5
140
100
AcDbEntity
8
0
100
AcDbCircle
10
30.468134565425355
20
-76.982853191186621
30
0
40
1.4999999999999971
100
AcDbArc
50
45.000000000000291
51
224.99999999999943
0
LINE
5
141
100
AcDbEntity
8
0
100
AcDbLine
10
-15.366445312500005
20
91.58644553601745
30
0
11
-18.725820312500005
21
94.96535178601745
31
0
0
LINE
5
142
100
AcDbEntity
8
0
100
AcDbLine
10
-1.7189843750000022
20
87.934101786017436
30
0
11
-4.5217187500000025
21
87.934101786017436
31
0
0
LINE
5
143
100
AcDbEntity
8
0
100
AcDbLine
10
18.671640624999995
20
94.93117209851745
30
0
11
18.691171874999995
21
94.91652366101745
31
0
0
ARC
5
144
100
AcDbEntity
8
0
100
AcDbCircle
10
-26.225493878306079
20
-81.225493878305898
30
0
40
1.4999999999999971
100
AcDbArc
50
-44.999999999999794
51
135.00000000000011
0
LINE
5
145
100
AcDbEntity
8
0
100
AcDbLine
10
-15.869375000000005
20
94.98000022351745
30
0
11
-13.901601562500005
21
92.91945334851745
31
0
0
LINE
5
146
100
AcDbEntity
8
0
100
AcDbLine
10
2.1042578124999971
20
94.94093772351745
30
0
11
2.1384374999999971
21
94.90675803601745
31
0
0
LINE
5
147
100
AcDbEntity
8
0
100
AcDbLine
10
8.2907812499999984
20
89.828633036017436
30
0
11
8.3396093749999984
21
89.828633036017436
31
0
0
LINE
5
148
100
AcDbEntity
8
0
100
AcDbLine
10
-5.2492578125000025
20
93.74953147351745
30
0
11
-2.9641015625000029
21
93.74953147351745
31
0
0
LINE
5
149
100
AcDbEntity
8
0
100
AcDbLine
10
-8.3644921875000016
20
94.92628928601745
30
0
11
-8.3449609375000016
21
94.94093772351745
31
0
0
LINE
5
150
100
AcDbEntity
8
0
100
AcDbLine
10
-3.7111718750000029
20
92.24074241101745
30
0
11
-4.4533593750000025
21
92.24074241101745
31
0
0
LWPOLYLINE
5
151
100
AcDbEntity
8
0
100
AcDbPolyline
90
4
70
1
43
0.0
10
23.043513362966618
20
-84.407474393645344
10
30.11458117483209
20
-91.478542205510848
42
-0.99999999999999989
10
27.993260831272444
20
-93.599862549070494
10
20.922193019406969
20
-86.528794737204976
42
-0.99999999999999989
0
SPLINE
5
152
100
AcDbEntity
8
0
100
AcDbSpline
70
1064
71
3
72
9
73
5
74
0
42
0.000000001
43
0.0000000001
44
0.0000000001
40
0
40
0
40
0
40
0
40
0.052340982847946693
40
0.19355528441710848
40
0.19355528441710848
40
0.19355528441710848
40
0.19355528441710848
10
6.9528906249999975
20
88.031758036017436
30
0
10
6.8602766358368781
20
88.179660229962025
30
0
10
6.5177930591423738
20
88.726597823740605
30
0
10
6.2188473582537682
20
89.298834912289408
30
0
10
6.0007421874999984
20
89.716328348517436
30
0
0
LINE
5
153
100
AcDbEntity
8
0
100
AcDbLine
10
-11.953359375000005
20
94.98000022351745
30
0
11
-9.0822656249999998
21
94.98000022351745
31
0
0
LINE
5
154
100
AcDbEntity
8
0
100
AcDbLine
10
13.476328124999997
20
94.93117209851745
30
0
11
13.490976562499997
21
94.91652366101745
31
0
0
LINE
5
155
100
AcDbEntity
8
0
100
AcDbLine
10
-12.280507812500003
20
88.437031473517436
30
0
11
-13.886953125000005
21
90.20949241101745
31
0
0
LINE
5
156
100
AcDbEntity
8
0
100
AcDbLine
10
13.490976562499997
20
89.828633036017436
30
0
11
13.539804687499997
21
89.828633036017436
31
0
0
LINE
5
157
100
AcDbEntity
8
0
100
AcDbLine
10
-1.7043359375000022
20
87.948750223517436
30
0
11
-1.7189843750000022
21
87.934101786017436
31
0
0
LINE
5
158
100
AcDbEntity
8
0
100
AcDbLine
10
-0.29808593750000223
20
94.94093772351745
30
0
11
2.1042578124999971
21
94.94093772351745
31
0
0
LINE
5
159
100
AcDbEntity
8
0
100
AcDbLine
10
13.505624999999997
20
94.91652366101745
30
0
11
12.118906249999997
21
92.39699241101745
31
0
0
LINE
5
160
100
AcDbEntity
8
0
100
AcDbLine
10
-13.886953125000005
20
90.20949241101745
30
0
11
-13.901601562500005
21
90.20949241101745
31
0
0
SPLINE
5
161
100
AcDbEntity
8
0
100
AcDbSpline
70
1064
71
3
72
9
73
5
74
0
42
0.000000001
43
0.0000000001
44
0.0000000001
40
0
40
0
40
0
40
0
40
0.072371945911333654
40
0.28434591002940118
40
0.28434591002940118
40
0.28434591002940118
40
0.28434591002940118
10
-13.901601562500005
20
90.20949241101745
30
0
10
-14.05818051363333
20
90.025962131422617
30
0
10
-14.673371715014056
20
89.304880451053279
30
0
10
-15.311016361072674
20
88.603471758439426
30
0
10
-15.786367187500003
20
88.080586161017436
30
0
0
LINE
5
162
100
AcDbEntity
8
0
100
AcDbLine
10
-18.564687500000005
20
88.080586161017436
30
0
11
-18.593984375000005
21
88.114765848517436
31
0
0
ARC
5
163
100
AcDbEntity
8
0
100
AcDbCircle
10
-30.468134565425355
20
-76.982853191186621
30
0
40
1.4999999999999971
100
AcDbArc
50
-44.999999999999439
51
134.99999999999972
0
LINE
5
164
100
AcDbEntity
8
0
100
AcDbLine
10
-20.922193019406983
20
86.528794737205004
30
0
11
-27.993260831272444
21
93.599862549070494
31
0
0
LINE
5
165
100
AcDbEntity
8
0
100
AcDbLine
10
-25.16483370652626
20
82.286154050085713
30
0
11
-32.235901518391721
21
89.357221861951203
31
0
0
LINE
5
166
100
AcDbEntity
8
0
100
AcDbLine
10
25.16483370652626
20
-82.286154050085713
30
0
11
32.235901518391721
21
-89.357221861951203
31
0
0
LINE
5
167
100
AcDbEntity
8
0
100
AcDbLine
10
16.283945312499995
20
94.93117209851745
30
0
11
18.671640624999995
21
94.93117209851745
31
0
0
ARC
5
168
100
AcDbEntity
8
0
100
AcDbCircle
10
33.296561690171551
20
-88.296561690171387
30
0
40
1.5000000000000062
100
AcDbArc
50
-135.00000000000037
51
44.999999999999808
0
LINE
5
169
100
AcDbEntity
8
0
100
AcDbLine
10
34.357221861951388
20
-87.235901518391557
30
0
11
27.286154050085898
21
-80.164833706526082
31
0
0
LINE
5
170
100
AcDbEntity
8
0
100
AcDbLine
10
-34.357221861951359
20
87.235901518391557
30
0
11
-27.286154050085898
21
80.164833706526082
31
0
0
ARC
5
171
100
AcDbEntity
8
0
100
AcDbCircle
10
-21.982853191186802
20
85.46813456542516
30
0
40
1.5000000000000002
100
AcDbArc
50
-135.0000000000002
51
45.000000000000668
0
SPLINE
5
172
100
AcDbEntity
8
0
100
AcDbSpline
70
1064
71
3
72
9
73
5
74
0
42
0.000000001
43
0.0000000001
44
0.0000000001
40
0
40
0
40
0
40
0
40
0.068583312402708888
40
0.25120221344852317
40
0.25120221344852317
40
0.25120221344852317
40
0.25120221344852317
10
12.148203124999997
20
88.031758036017436
30
0
10
12.030437828068454
20
88.227730068392873
30
0
10
11.599095243112503
20
88.945522875156925
30
0
10
11.20738359229235
20
89.6859010041413
30
0
10
10.922617187499995
20
90.22414084851745
30
0
0
LINE
5
173
100
AcDbEntity
8
0
100
AcDbLine
10
38.599862549070664
20
-82.993260831272323
30
0
11
31.528794737205175
21
-75.922193019406791
31
0
0
LINE
5
174
100
AcDbEntity
8
0
100
AcDbLine
10
10.922617187499995
20
90.22414084851745
30
0
11
10.907968749999995
21
90.22414084851745
31
0
0
ARC
5
175
100
AcDbEntity
8
0
100
AcDbCircle
10
-33.296561690171544
20
88.296561690171387
30
0
40
1.4999999999999971
100
AcDbArc
50
44.999999999999808
51
225.0000000000004
0
LWPOLYLINE
5
176
100
AcDbEntity
8
0
100
AcDbPolyline
90
8
70
1
43
0.0
10
-1.5000000000000002
20
52.500000223517418
10
1.5000000000000002
20
52.500000223517418
42
-0.41421356237309631
10
2.5000000000000027
20
51.500000223517418
10
2.5000000000000004
20
48.500000223517425
42
-0.41421356237310369
10
1.5000000000000013
20
47.500000223517418
10
-1.5
20
47.500000223517418
42
-0.41421356237309254
10
-2.5
20
48.500000223517425
10
-2.5000000000000018
20
51.500000223517418
42
-0.41421356237309653
0
LWPOLYLINE
5
177
100
AcDbEntity
8
0
100
AcDbPolyline
90
8
70
1
43
0.0
10
-22.499999999999996
20
48.500000223517425
42
0.41421356237310802
10
-21.5
20
47.500000223517418
10
-18.5
20
47.500000223517418
42
0.41421356237309048
10
-17.499999999999996
20
48.500000223517425
10
-17.500000000000004
20
51.500000223517418
42
0.4142135623730957
10
-18.5
20
52.500000223517418
10
-21.5
20
52.500000223517418
42
0.41421356237309764
10
-22.500000000000004
20
51.500000223517418
0
LWPOLYLINE
5
178
100
AcDbEntity
8
0
100
AcDbPolyline
90
8
70
1
43
0.0
10
-17.499999999999996
20
38.500000223517418
10
-17.500000000000004
20
41.500000223517411
42
0.4142135623730957
10
-18.5
20
42.500000223517411
10
-21.5
20
42.500000223517411
42
0.41421356237309764
10
-22.500000000000004
20
41.500000223517411
10
-22.5
20
38.500000223517418
42
0.41421356237310414
10
-21.5
20
37.500000223517425
10
-18.5
20
37.500000223517418
42
0.4142135623730937
0
CIRCLE
5
179
100
AcDbEntity
8
0
100
AcDbCircle
10
-15.250000000000004
20
-69.75
30
0
40
1.5000000000000002
0
LINE
5
180
100
AcDbEntity
8
0
100
AcDbLine
10
-6.0256250000000033
20
90.66847678601745
30
0
11
-8.3644921875000016
21
94.92628928601745
31
0
0
LINE
5
181
100
AcDbEntity
8
0
100
AcDbLine
10
6.0007421874999984
20
89.716328348517436
30
0
11
3.1247656249999971
21
94.91652366101745
31
0
0
SPLINE
5
182
100
AcDbEntity
8
0
100
AcDbSpline
70
1064
71
3
72
9
73
5
74
0
42
0.000000001
43
0.0000000001
44
0.0000000001
40
0
40
0
40
0
40
0
40
0.067195576914193936
40
0.26336606330478363
40
0.26336606330478363
40
0.26336606330478363
40
0.26336606330478363
10
5.5271093749999975
20
94.93117209851745
30
0
10
5.6386555674257117
20
94.736931731514744
30
0
10
6.0758492477971444
20
93.975626848937367
30
0
10
6.4917420744082621
20
93.20241678856938
30
0
10
6.8015234374999975
20
92.62648459851745
30
0
0
LINE
5
183
100
AcDbEntity
8
0
100
AcDbLine
10
2.1384374999999971
20
94.90675803601745
30
0
11
-1.7043359375000022
21
87.948750223517436
31
0
0
LINE
5
184
100
AcDbEntity
8
0
100
AcDbLine
10
-2.7297265625000029
20
93.76417991101745
30
0
11
-2.5148828125000029
21
93.74953147351745
31
0
0
LINE
5
185
100
AcDbEntity
8
0
100
AcDbLine
10
6.8015234374999975
20
92.62648459851745
30
0
11
8.2907812499999984
21
89.828633036017436
31
0
0
LINE
5
186
100
AcDbEntity
8
0
100
AcDbLine
10
-1.3723046875000022
20
93.71535178601745
30
0
11
-2.2023828125000025
21
92.24074241101745
31
0
0
LINE
5
187
100
AcDbEntity
8
0
100
AcDbLine
10
8.3396093749999984
20
89.828633036017436
30
0
11
11.088632812499995
21
94.93117209851745
31
0
0
LINE
5
188
100
AcDbEntity
8
0
100
AcDbLine
10
13.539804687499997
20
89.828633036017436
30
0
11
16.283945312499995
21
94.93117209851745
31
0
0
LINE
5
189
100
AcDbEntity
8
0
100
AcDbLine
10
3.1247656249999971
20
94.91652366101745
30
0
11
3.1394140624999971
21
94.93117209851745
31
0
0
LINE
5
190
100
AcDbEntity
8
0
100
AcDbLine
10
-2.9641015625000029
20
93.74953147351745
30
0
11
-2.7297265625000029
21
93.76417991101745
31
0
0
LINE
5
191
100
AcDbEntity
8
0
100
AcDbLine
10
3.1394140624999971
20
94.93117209851745
30
0
11
5.5271093749999975
21
94.93117209851745
31
0
0
LINE
5
192
100
AcDbEntity
8
0
100
AcDbLine
10
-9.1945703124999998
20
88.114765848517436
30
0
11
-9.2287499999999998
21
88.080586161017436
31
0
0
LWPOLYLINE
5
193
100
AcDbEntity
8
0
100
AcDbPolyline
90
8
70
1
43
0.0
10
21.5
20
42.500000223517411
10
18.5
20
42.500000223517418
42
0.4142135623730957
10
17.499999999999996
20
41.500000223517411
10
17.499999999999996
20
38.500000223517418
42
0.41421356237309825
10
18.5
20
37.500000223517411
10
21.500000000000004
20
37.500000223517411
42
0.41421356237309243
10
22.500000000000004
20
38.500000223517418
10
22.500000000000004
20
41.500000223517411
42
0.41421356237309764
0
LINE
5
194
100
AcDbEntity
8
0
100
AcDbLine
10
18.691171874999995
20
94.91652366101745
30
0
11
18.705820312499995
21
94.91652366101745
31
0
0
LINE
5
195
100
AcDbEntity
8
0
100
AcDbLine
10
-3.0959375000000016
20
89.74074241101745
30
0
11
-0.29808593750000223
21
94.94093772351745
31
0
0
LINE
5
196
100
AcDbEntity
8
0
100
AcDbLine
10
-18.593984375000005
20
88.114765848517436
30
0
11
-15.366445312500005
21
91.57179709851745
31
0
0
LINE
5
197
100
AcDbEntity
8
0
100
AcDbLine
10
-15.366445312500005
20
91.57179709851745
30
0
11
-15.366445312500005
21
91.58644553601745
31
0
0
LWPOLYLINE
5
198
100
AcDbEntity
8
0
100
AcDbPolyline
90
8
70
1
43
0.0
10
-12.500000000000002
20
38.500000223517418
42
0.41421356237310025
10
-11.500000000000002
20
37.500000223517411
10
-8.4999999999999982
20
37.500000223517411
42
0.41421356237309276
10
-7.4999999999999964
20
38.500000223517418
10
-7.5000000000000009
20
41.500000223517411
42
0.41421356237309598
10
-8.5
20
42.500000223517411
10
-11.500000000000002
20
42.500000223517411
42
0.41421356237309698
10
-12.500000000000002
20
41.500000223517411
0
LINE
5
199
100
AcDbEntity
8
0
100
AcDbLine
10
-9.2287499999999998
20
88.080586161017436
30
0
11
-11.924062500000005
21
88.080586161017436
31
0
0
LINE
5
200
100
AcDbEntity
8
0
100
AcDbLine
10
-18.725820312500005
20
94.98000022351745
30
0
11
-15.869375000000005
21
94.98000022351745
31
0
0
SPLINE
5
201
100
AcDbEntity
8
0
100
AcDbSpline
70
1064
71
3
72
9
73
5
74
0
42
0.000000001
43
0.0000000001
44
0.0000000001
40
0
40
0
40
0
40
0
40
0.032639145455580616
40
0.12558492749979611
40
0.12558492749979611
40
0.12558492749979611
40
0.12558492749979611
10
-5.9475000000000025
20
94.94093772351745
30
0
10
-5.8870199314677585
20
94.85042543789136
30
0
10
-5.6543120919766405
20
94.502163292252078
30
0
10
-5.4692388714154756
20
94.125762833546247
30
0
10
-5.3322656250000025
20
93.84718772351745
30
0
0
LINE
5
202
100
AcDbEntity
8
0
100
AcDbLine
10
-18.725820312500005
20
94.96535178601745
30
0
11
-18.725820312500005
21
94.98000022351745
31
0
0
CIRCLE
5
203
100
AcDbEntity
8
0
100
AcDbCircle
10
-15.250000000000004
20
-100.25
30
0
40
1.5000000000000002
0
LINE
5
204
100
AcDbEntity
8
0
100
AcDbLine
10
-12.392812500000005
20
91.57179709851745
30
0
11
-9.1945703124999998
21
88.114765848517436
31
0
0
LINE
5
205
100
AcDbEntity
8
0
100
AcDbLine
10
-2.5148828125000029
20
93.74953147351745
30
0
11
-1.3723046875000022
21
93.74953147351745
31
0
0
SPLINE
5
206
100
AcDbEntity
8
0
100
AcDbSpline
70
1064
71
3
72
9
73
5
74
0
42
0.000000001
43
0.0000000001
44
0.0000000001
40
0
40
0
40
0
40
0
40
0.20569079479869729
40
0.28319852240558191
40
0.28319852240558191
40
0.28319852240558191
40
0.28319852240558191
10
-4.4533593750000025
20
92.22609397351745
30
0
10
-4.1319744078495528
20
91.62037773801778
30
0
10
-3.6894862162440516
20
90.786417506309519
30
0
10
-3.2234778800695745
20
89.965434665305807
30
0
10
-3.0959375000000033
20
89.740742411017436
30
0
0
CIRCLE
5
207
100
AcDbEntity
8
0
100
AcDbCircle
10
10
20
-75
30
0
40
1.0000000000000004
0
LWPOLYLINE
5
208
100
AcDbEntity
8
0
100
AcDbPolyline
90
8
70
1
43
0.0
10
1.5000000000000002
20
42.500000223517411
10
-1.5000000000000002
20
42.500000223517411
42
0.41421356237309631
10
-2.5000000000000027
20
41.500000223517411
10
-2.5000000000000004
20
38.500000223517418
42
0.41421356237309881
10
-1.5000000000000002
20
37.500000223517425
10
1.5000000000000013
20
37.500000223517411
42
0.41421356237309309
10
2.500000000000004
20
38.500000223517418
10
2.5000000000000009
20
41.500000223517404
42
0.41421356237309631
0
LINE
5
209
100
AcDbEntity
8
0
100
AcDbLine
10
-15.786367187500003
20
88.080586161017436
30
0
11
-18.564687500000005
21
88.080586161017436
31
0
0
SPLINE
5
210
100
AcDbEntity
8
0
100
AcDbSpline
70
1064
71
3
72
9
73
5
74
0
42
0.000000001
43
0.0000000001
44
0.0000000001
40
0
40
0
40
0
40
0
40
0.081156104192358289
40
0.31208835874337726
40
0.31208835874337726
40
0.31208835874337726
40
0.31208835874337726
10
-4.5217187500000025
20
87.934101786017436
30
0
10
-4.6576412892172554
20
88.168012458763599
30
0
10
-5.1803357014576479
20
89.067523329527987
30
0
10
-5.6661458961111677
20
89.987633771798542
30
0
10
-6.0256250000000033
20
90.66847678601745
30
0
0
LINE
5
211
100
AcDbEntity
8
0
100
AcDbLine
10
14.897226562499997
20
88.031758036017436
30
0
11
12.148203124999997
21
88.031758036017436
31
0
0
LINE
5
212
100
AcDbEntity
8
0
100
AcDbLine
10
-13.901601562500005
20
92.91945334851745
30
0
11
-11.953359375000005
21
94.98000022351745
31
0
0
LINE
5
213
100
AcDbEntity
8
0
100
AcDbLine
10
13.490976562499997
20
94.91652366101745
30
0
11
13.505624999999997
21
94.91652366101745
31
0
0
LINE
5
214
100
AcDbEntity
8
0
100
AcDbLine
10
-3.1789453125000029
20
92.24074241101745
30
0
11
-3.4426171875000029
21
92.22609397351745
31
0
0
LINE
5
215
100
AcDbEntity
8
0
100
AcDbLine
10
-9.0822656249999998
20
94.96535178601745
30
0
11
-12.392812500000005
21
91.57179709851745
31
0
0
LINE
5
216
100
AcDbEntity
8
0
100
AcDbLine
10
11.088632812499995
20
94.93117209851745
30
0
11
13.476328124999997
21
94.93117209851745
31
0
0
LINE
5
217
100
AcDbEntity
8
0
100
AcDbLine
10
-1.3723046875000022
20
93.74953147351745
30
0
11
-1.3723046875000022
21
93.71535178601745
31
0
0
LINE
5
218
100
AcDbEntity
8
0
100
AcDbLine
10
18.705820312499995
20
94.91652366101745
30
0
11
14.911874999999997
21
88.046406473517436
31
0
0
LWPOLYLINE
5
219
100
AcDbEntity
8
0
100
AcDbPolyline
90
8
70
1
43
0.0
10
12.500000000000004
20
51.500000223517418
42
0.41421356237309698
10
11.500000000000002
20
52.500000223517418
10
8.5
20
52.500000223517418
42
0.41421356237309598
10
7.4999999999999991
20
51.500000223517418
10
7.5000000000000009
20
48.500000223517425
42
0.41421356237310381
10
8.5
20
47.500000223517418
10
11.500000000000002
20
47.500000223517418
42
0.41421356237309959
10
12.500000000000007
20
48.500000223517425
0
LWPOLYLINE
5
220
100
AcDbEntity
8
0
100
AcDbPolyline
90
8
70
1
43
0.0
10
22.500000000000004
20
51.500000223517418
42
0.41421356237309764
10
21.5
20
52.500000223517418
10
18.5
20
52.500000223517418
42
0.4142135623730957
10
17.499999999999996
20
51.500000223517418
10
17.500000000000004
20
48.500000223517425
42
0.41421356237310347
10
18.5
20
47.500000223517418
10
21.500000000000004
20
47.500000223517418
42
0.41421356237309243
10
22.500000000000004
20
48.500000223517425
0
LWPOLYLINE
5
221
100
AcDbEntity
8
0
100
AcDbPolyline
90
8
70
1
43
0.0
10
7.4999999999999991
20
41.500000223517411
10
7.4999999999999991
20
38.500000223517418
42
0.41421356237309798
10
8.5
20
37.500000223517411
10
11.500000000000002
20
37.500000223517411
42
0.41421356237309631
10
12.500000000000007
20
38.500000223517418
10
12.500000000000004
20
41.500000223517411
42
0.41421356237309698
10
11.500000000000002
20
42.500000223517411
10
8.5
20
42.500000223517411
42
0.41421356237309598
0
CIRCLE
5
222
100
AcDbEntity
8
0
100
AcDbCircle
10
-10
20
-95
30
0
40
1.0000000000000004
0
LWPOLYLINE
5
223
100
AcDbEntity
8
0
100
AcDbPolyline
90
8
70
1
43
0.0
10
-17.500000000000004
20
61.500000223517418
42
0.4142135623730957
10
-18.5
20
62.500000223517418
10
-21.5
20
62.500000223517418
42
0.41421356237309764
10
-22.500000000000004
20
61.500000223517418
10
-22.499999999999996
20
58.500000223517425
42
0.41421356237310802
10
-21.5
20
57.500000223517418
10
-18.5
20
57.500000223517418
42
0.41421356237309048
10
-17.499999999999996
20
58.500000223517425
0
CIRCLE
5
224
100
AcDbEntity
8
0
100
AcDbCircle
10
15.250000000000004
20
-100.25
30
0
40
1.5000000000000002
0
LWPOLYLINE
5
225
100
AcDbEntity
8
0
100
AcDbPolyline
90
8
70
1
43
0.0
10
1.5000000000000002
20
62.500000223517418
10
-1.5000000000000002
20
62.500000223517418
42
0.41421356237309631
10
-2.5000000000000027
20
61.500000223517418
10
-2.4999999999999925
20
58.500000223517425
42
0.41421356237310686
10
-1.5000000000000002
20
57.500000223517418
10
1.5000000000000013
20
57.500000223517418
42
0.41421356237308982
10
2.500000000000004
20
58.500000223517425
10
2.5000000000000009
20
61.500000223517418
42
0.41421356237309631
0
CIRCLE
5
226
100
AcDbEntity
8
0
100
AcDbCircle
10
-9.9999999999999982
20
-75
30
0
40
1.0000000000000004
0
CIRCLE
5
227
100
AcDbEntity
8
0
100
AcDbCircle
10
9.9999999999999982
20
-95
30
0
40
1.0000000000000004
0
CIRCLE
5
228
100
AcDbEntity
8
0
100
AcDbCircle
10
15.250000000000004
20
-69.75
30
0
40
1.5000000000000002
0
LWPOLYLINE
5
229
100
AcDbEntity
8
0
100
AcDbPolyline
90
8
70
1
43
0.0
10
-8.5
20
62.500000223517418
10
-11.500000000000002
20
62.500000223517418
42
0.41421356237309698
10
-12.500000000000002
20
61.500000223517418
10
-12.499999999999991
20
58.500000223517425
42
0.41421356237310608
10
-11.500000000000002
20
57.500000223517418
10
-8.4999999999999982
20
57.500000223517418
42
0.41421356237308982
10
-7.4999999999999964
20
58.500000223517425
10
-7.5000000000000009
20
61.500000223517418
42
0.41421356237309598
0
LWPOLYLINE
5
230
100
AcDbEntity
8
0
100
AcDbPolyline
90
8
70
1
43
0.0
10
-8.5
20
52.500000223517418
10
-11.500000000000002
20
52.500000223517418
42
0.41421356237309698
10
-12.500000000000002
20
51.500000223517418
10
-12.499999999999991
20
48.500000223517425
42
0.41421356237310608
10
-11.500000000000002
20
47.500000223517418
10
-8.4999999999999982
20
47.500000223517418
42
0.41421356237308982
10
-7.4999999999999964
20
48.500000223517425
10
-7.5000000000000009
20
51.500000223517418
42
0.41421356237309598
0
LWPOLYLINE
5
231
100
AcDbEntity
8
0
100
AcDbPolyline
90
4
70
1
43
0.0
10
-68.192786034530855
20
93.494301224695647
10
-82.334921658261806
20
107.63643684842661
42
0.99999999999999989
10
-84.45624200182138
20
105.51511650486697
10
-70.314106378090457
20
91.372980881135973
42
0.99999999999999989
0
LWPOLYLINE
5
232
100
AcDbEntity
8
0
100
AcDbPolyline
90
4
70
1
43
0.0
10
-50.515116504867059
20
139.45624200182129
10
-36.372980881136094
20
125.31410637809032
42
-0.99999999999999989
10
-38.494301224695732
20
123.19278603453071
10
-52.636436848426698
20
137.33492165826164
42
-0.99999999999999989
0
LWPOLYLINE
5
233
100
AcDbEntity
8
0
100
AcDbPolyline
90
8
70
1
43
0.0
10
-65.491811304537052
20
-133.21973336589485
10
-78.219733365894911
20
-120.49181130453698
42
-0.41421356237310053
10
-78.219733365894911
20
-117.66338417979078
10
-58.420743492671605
20
-97.864394306567476
42
-0.41421356237309231
10
-55.592316367925406
20
-97.864394306567476
10
-42.864394306567561
20
-110.59231636792532
42
-0.4142135623730932
10
-42.864394306567561
20
-113.42074349267151
10
-62.663384179790889
20
-133.21973336589485
42
-0.41421356237308216
0
ARC
5
234
100
AcDbEntity
8
0
100
AcDbCircle
10
69.253446206310642
20
92.43364105291576
30
0
40
1.4999999999999656
100
AcDbArc
50
134.9999999999996
51
315
0
LWPOLYLINE
5
235
100
AcDbEntity
8
0
100
AcDbPolyline
90
8
70
1
43
0.0
10
-58.420743492671576
20
97.864394306567476
42
0.41421356237309137
10
-55.592316367925392
20
97.864394306567476
10
-42.864394306567569
20
110.59231636792532
42
0.41421356237309687
10
-42.864394306567569
20
113.42074349267151
10
-62.663384179790881
20
133.21973336589485
42
0.41421356237309231
10
-65.49181130453708
20
133.21973336589485
10
-78.219733365894939
20
120.49181130453697
42
0.4142135623730932
10
-78.219733365894939
20
117.66338417979078
0
LWPOLYLINE
5
236
100
AcDbEntity
8
0
100
AcDbPolyline
90
8
70
1
43
0.0
10
78.219733365894911
20
-117.66338417979078
10
58.420743492671605
20
-97.864394306567476
42
0.41421356237309231
10
55.592316367925406
20
-97.864394306567476
10
42.864394306567569
20
-110.59231636792532
42
0.41421356237309687
10
42.864394306567569
20
-113.42074349267151
10
62.663384179790889
20
-133.21973336589485
42
0.41421356237308216
10
65.491811304537052
20
-133.21973336589485
10
78.219733365894911
20
-120.49181130453698
42
0.41421356237310053
0
LWPOLYLINE
5
237
100
AcDbEntity
8
0
100
AcDbPolyline
90
8
70
1
43
0.0
10
65.491811304537052
20
133.21973336589485
10
78.219733365894939
20
120.49181130453697
42
-0.41421356237309875
10
78.219733365894939
20
117.66338417979078
10
58.420743492671576
20
97.864394306567476
42
-0.41421356237309137
10
55.592316367925392
20
97.864394306567476
10
42.864394306567561
20
110.59231636792532
42
-0.41421356237309875
10
42.864394306567561
20
113.42074349267151
10
62.663384179790889
20
133.21973336589485
42
-0.41421356237308216
0
LWPOLYLINE
5
238
100
AcDbEntity
8
0
100
AcDbPolyline
90
8
70
1
43
0.0
10
1.5000000000000013
20
-62.499999776482582
42
0.41421356237309631
10
2.500000000000004
20
-61.499999776482582
10
2.5
20
-58.499999776482589
42
0.41421356237310381
10
1.5000000000000002
20
-57.499999776482582
10
-1.5000000000000002
20
-57.499999776482582
42
0.41421356237308982
10
-2.5000000000000027
20
-58.499999776482589
10
-2.5000000000000022
20
-61.499999776482582
42
0.41421356237309659
10
-1.5000000000000002
20
-62.499999776482582
0
LWPOLYLINE
5
239
100
AcDbEntity
8
0
100
AcDbPolyline
90
8
70
1
43
0.0
10
-17.499999999999996
20
-51.499999776482582
10
-17.5
20
-48.499999776482596
42
0.41421356237310414
10
-18.5
20
-47.499999776482582
10
-21.5
20
-47.499999776482582
42
0.41421356237309115
10
-22.500000000000004
20
-48.499999776482589
10
-22.499999999999996
20
-51.499999776482582
42
0.41421356237310025
10
-21.5
20
-52.499999776482582
10
-18.5
20
-52.499999776482582
42
0.4142135623730957
0
LWPOLYLINE
5
240
100
AcDbEntity
8
0
100
AcDbPolyline
90
8
70
1
43
0.0
10
-11.500000000000002
20
-47.499999776482582
42
0.41421356237309309
10
-12.500000000000002
20
-48.499999776482589
10
-12.500000000000004
20
-51.499999776482582
42
0.41421356237309698
10
-11.500000000000002
20
-52.499999776482582
10
-8.4999999999999982
20
-52.499999776482582
42
0.41421356237309598
10
-7.4999999999999964
20
-51.499999776482582
10
-7.5000000000000018
20
-48.499999776482589
42
0.41421356237310347
10
-8.5
20
-47.499999776482582
0
LWPOLYLINE
5
241
100
AcDbEntity
8
0
100
AcDbPolyline
90
8
70
1
43
0.0
10
12.500000000000007
20
-51.499999776482582
10
12.5
20
-48.499999776482589
42
0.41421356237310347
10
11.500000000000002
20
-47.499999776482582
10
8.5
20
-47.499999776482582
42
0.41421356237308982
10
7.4999999999999991
20
-48.499999776482589
10
7.5
20
-51.499999776482582
42
0.41421356237309631
10
8.5
20
-52.499999776482582
10
11.500000000000002
20
-52.499999776482582
42
0.41421356237309631
0
LWPOLYLINE
5
242
100
AcDbEntity
8
0
100
AcDbPolyline
90
8
70
1
43
0.0
10
-2.5000000000000022
20
-51.499999776482582
42
0.41421356237309659
10
-1.5000000000000002
20
-52.499999776482582
10
1.5000000000000013
20
-52.499999776482582
42
0.41421356237309631
10
2.500000000000004
20
-51.499999776482582
10
2.5
20
-48.499999776482589
42
0.41421356237310381
10
1.5000000000000002
20
-47.499999776482582
10
-1.5000000000000002
20
-47.499999776482582
42
0.41421356237308982
10
-2.5000000000000027
20
-48.499999776482589
0
LWPOLYLINE
5
243
100
AcDbEntity
8
0
100
AcDbPolyline
90
8
70
1
43
0.0
10
17.499999999999996
20
-58.499999776482589
10
17.500000000000004
20
-61.499999776482582
42
0.4142135623730957
10
18.5
20
-62.499999776482582
10
21.500000000000004
20
-62.499999776482582
42
0.41421356237309503
10
22.500000000000004
20
-61.499999776482582
10
22.5
20
-58.499999776482596
42
0.41421356237310414
10
21.5
20
-57.499999776482582
10
18.5
20
-57.499999776482582
42
0.41421356237309048
0
CIRCLE
5
244
100
AcDbEntity
8
0
100
AcDbCircle
10
15
20
112.62581013117583
30
0
40
1.4999999999999991
0
LINE
5
245
100
AcDbEntity
8
0
100
AcDbLine
10
36.372980881136101
20
-125.31410637809032
30
0
11
50.515116504867059
21
-139.45624200182124
31
0
0
LWPOLYLINE
5
246
100
AcDbEntity
8
0
100
AcDbPolyline
90
8
70
1
43
0.0
10
22.500000000000004
20
-51.499999776482582
10
22.5
20
-48.499999776482596
42
0.41421356237310414
10
21.5
20
-47.499999776482582
10
18.5
20
-47.499999776482582
42
0.41421356237309048
10
17.499999999999996
20
-48.499999776482589
10
17.500000000000004
20
-51.499999776482582
42
0.4142135623730957
10
18.5
20
-52.499999776482582
10
21.500000000000004
20
-52.499999776482582
42
0.41421356237309503
0
LWPOLYLINE
5
247
100
AcDbEntity
8
0
100
AcDbPolyline
90
8
70
1
43
0.0
10
11.500000000000002
20
-62.499999776482582
42
0.41421356237309631
10
12.500000000000007
20
-61.499999776482582
10
12.5
20
-58.499999776482589
42
0.41421356237310347
10
11.500000000000002
20
-57.499999776482582
10
8.5
20
-57.499999776482582
42
0.41421356237308982
10
7.4999999999999991
20
-58.499999776482589
10
7.5
20
-61.499999776482582
42
0.41421356237309631
10
8.5
20
-62.499999776482582
0
LWPOLYLINE
5
248
100
AcDbEntity
8
0
100
AcDbPolyline
90
4
70
1
43
0.0
10
-82.334921658261806
20
-107.63643684842661
42
-0.99999999999999989
10
-84.456242001821408
20
-105.51511650486697
10
-70.314106378090472
20
-91.372980881135973
42
-0.99999999999999989
10
-68.19278603453084
20
-93.494301224695647
0
LINE
5
249
100
AcDbEntity
8
0
100
AcDbLine
10
68.19278603453084
20
-93.494301224695562
30
0
11
82.334921658261791
21
-107.63643684842664
31
0
0
LWPOLYLINE
5
250
100
AcDbEntity
8
0
100
AcDbPolyline
90
8
70
1
43
0.0
10
-17.499999999999996
20
-61.499999776482582
10
-17.5
20
-58.499999776482596
42
0.41421356237310414
10
-18.5
20
-57.499999776482582
10
-21.5
20
-57.499999776482582
42
0.41421356237309115
10
-22.500000000000004
20
-58.499999776482589
10
-22.499999999999996
20
-61.499999776482582
42
0.41421356237310025
10
-21.5
20
-62.499999776482582
10
-18.5
20
-62.499999776482582
42
0.4142135623730957
0
LWPOLYLINE
5
251
100
AcDbEntity
8
0
100
AcDbPolyline
90
8
70
1
43
0.0
10
-8.4999999999999982
20
-62.499999776482582
42
0.41421356237309598
10
-7.4999999999999964
20
-61.499999776482582
10
-7.5000000000000018
20
-58.499999776482589
42
0.41421356237310347
10
-8.5
20
-57.499999776482582
10
-11.500000000000002
20
-57.499999776482582
42
0.41421356237309309
10
-12.500000000000002
20
-58.499999776482589
10
-12.500000000000004
20
-61.499999776482582
42
0.41421356237309698
10
-11.500000000000002
20
-62.499999776482582
0
LWPOLYLINE
5
252
100
AcDbEntity
8
0
100
AcDbPolyline
90
4
70
1
43
0.0
10
52.636436848426712
20
137.33492165826164
42
0.99999999999999989
10
50.515116504867109
20
139.45624200182124
10
36.372980881136101
20
125.31410637809032
42
0.99999999999999989
10
38.494301224695775
20
123.19278603453071
0
ARC
5
253
100
AcDbEntity
8
0
100
AcDbCircle
10
37.433641052915931
20
-124.25344620631053
30
0
40
1.4999999999999971
100
AcDbArc
50
45
51
224.99999999999883
0
ARC
5
254
100
AcDbEntity
8
0
100
AcDbCircle
10
83.395581830041579
20
-106.57577667664684
30
0
40
1.499999999999972
100
AcDbArc
50
-134.9999999999996
51
44.999999999999233
0
ARC
5
255
100
AcDbEntity
8
0
100
AcDbCircle
10
-37.433641052915924
20
-124.25344620631051
30
0
40
1.4999999999999971
100
AcDbArc
50
-45
51
135.0000000000002
0
ARC
5
256
100
AcDbEntity
8
0
100
AcDbCircle
10
-51.575776676646889
20
-138.39558183004144
30
0
40
1.4999999999999907
100
AcDbArc
50
134.99999999999943
51
315.0000000000008
0
LINE
5
257
100
AcDbEntity
8
0
100
AcDbLine
10
84.456242001821394
20
-105.51511650486705
30
0
11
70.314106378090472
21
-91.372980881135973
31
0
0
LINE
5
258
100
AcDbEntity
8
0
100
AcDbLine
10
-50.515116504867059
20
-139.45624200182124
30
0
11
-36.372980881136108
21
-125.31410637809033
31
0
0
ARC
5
259
100
AcDbEntity
8
0
100
AcDbCircle
10
51.575776676646882
20
-138.39558183004141
30
0
40
1.4999999999999971
100
AcDbArc
50
-134.9999999999998
51
44.999999999999609
0
LINE
5
260
100
AcDbEntity
8
0
100
AcDbLine
10
52.636436848426698
20
-137.33492165826161
30
0
11
38.494301224695747
21
-123.19278603453071
31
0
0
LINE
5
261
100
AcDbEntity
8
0
100
AcDbLine
10
-38.494301224695747
20
-123.1927860345307
30
0
11
-52.636436848426698
21
-137.33492165826161
31
0
0
CIRCLE
5
262
100
AcDbEntity
8
0
100
AcDbCircle
10
-15
20
112.62581013117584
30
0
40
1.4999999999999989
0
LINE
5
263
100
AcDbEntity
8
0
100
AcDbLine
10
70.314106378090443
20
91.372980881135959
30
0
11
84.456242001821408
21
105.51511650486702
31
0
0
LWPOLYLINE
5
264
100
AcDbEntity
8
0
100
AcDbPolyline
90
8
70
1
43
0.0
10
21.500000000000004
20
57.500000223517418
42
0.41421356237309243
10
22.500000000000004
20
58.500000223517425
10
22.500000000000004
20
61.500000223517418
42
0.41421356237309764
10
21.5
20
62.500000223517418
10
18.5
20
62.500000223517418
42
0.4142135623730957
10
17.499999999999996
20
61.500000223517418
10
17.500000000000004
20
58.500000223517425
42
0.41421356237310347
10
18.5
20
57.500000223517418
0
LINE
5
265
100
AcDbEntity
8
0
100
AcDbLine
10
82.334921658261791
20
107.63643684842664
30
0
11
68.192786034530855
21
93.494301224695562
31
0
0
LWPOLYLINE
5
266
100
AcDbEntity
8
0
100
AcDbPolyline
90
8
70
1
43
0.0
10
17.500000000000004
20
-41.499999776482575
42
0.4142135623730957
10
18.5
20
-42.499999776482575
10
21.500000000000004
20
-42.499999776482582
42
0.41421356237309503
10
22.500000000000004
20
-41.499999776482575
10
22.500000000000007
20
-38.499999776482582
42
0.41421356237309764
10
21.5
20
-37.499999776482575
10
18.5
20
-37.499999776482575
42
0.41421356237309503
10
17.499999999999996
20
-38.499999776482582
0
LWPOLYLINE
5
267
100
AcDbEntity
8
0
100
AcDbPolyline
90
8
70
1
43
0.0
10
12.500000000000004
20
61.500000223517418
42
0.41421356237309698
10
11.500000000000002
20
62.500000223517418
10
8.5
20
62.500000223517418
42
0.41421356237309598
10
7.4999999999999991
20
61.500000223517418
10
7.5000000000000009
20
58.500000223517425
42
0.41421356237310381
10
8.5
20
57.500000223517418
10
11.500000000000002
20
57.500000223517418
42
0.41421356237309959
10
12.500000000000007
20
58.500000223517425
0
ARC
5
268
100
AcDbEntity
8
0
100
AcDbCircle
10
83.395581830041607
20
106.57577667664683
30
0
40
1.499999999999972
100
AcDbArc
50
-45
51
135
0
ARC
5
269
100
AcDbEntity
8
0
100
AcDbCircle
10
69.253446206310642
20
-92.43364105291576
30
0
40
1.4999999999999907
100
AcDbArc
50
44.999999999998849
51
225
0
LWPOLYLINE
5
270
100
AcDbEntity
8
0
100
AcDbPolyline
90
8
70
1
43
0.0
10
11.500000000000002
20
-37.499999776482575
10
8.5
20
-37.499999776482575
42
0.41421356237309276
10
7.4999999999999991
20
-38.499999776482582
10
7.5
20
-41.499999776482568
42
0.41421356237309631
10
8.5
20
-42.499999776482575
10
11.500000000000002
20
-42.499999776482582
42
0.41421356237309631
10
12.500000000000007
20
-41.499999776482575
10
12.500000000000004
20
-38.499999776482582
42
0.41421356237309825
0
CIRCLE
5
271
100
AcDbEntity
8
0
100
AcDbCircle
10
-54.53165619614559
20
149.83674272377871
30
0
40
2.0000000000000058
0
CIRCLE
5
272
100
AcDbEntity
8
0
100
AcDbCircle
10
-66.55247147626811
20
81.247384948732403
30
0
40
1.9999999999999929
0
CIRCLE
5
273
100
AcDbEntity
8
0
100
AcDbCircle
10
-94.836742723729998
20
109.53165619619429
30
0
40
1.9999999999999929
0
LWPOLYLINE
5
274
100
AcDbEntity
8
0
100
AcDbPolyline
90
10
70
1
43
0.0
10
-4.2426406871192821
20
-21.162427050240389
42
0.41421356237309687
10
-2.8284271247461872
20
-21.162427050240385
10
-5.5511151231257827e-16
20
-18.333999925494197
10
2.8284271247461885
20
-21.162427050240385
42
0.41421356237309337
10
4.2426406871192812
20
-21.162427050240385
10
4.5961940777125596
20
-20.808873659647112
42
0.41421356237309825
10
4.5961940777125578
20
-19.394660097274009
10
-1.1102230246251565e-15
20
-14.798466019561456
10
-4.5961940777125561
20
-19.394660097274013
42
0.41421356237309293
10
-4.5961940777125578
20
-20.808873659647105
0
CIRCLE
5
275
100
AcDbEntity
8
0
100
AcDbCircle
10
94.836742723778826
20
-109.53165619614545
30
0
40
1.9999999999999929
0
CIRCLE
5
276
100
AcDbEntity
8
0
100
AcDbCircle
10
66.552471476316967
20
81.247384948683546
30
0
40
1.9999999999999929
0
CIRCLE
5
277
100
AcDbEntity
8
0
100
AcDbCircle
10
-66.552471476316981
20
-81.247384948683546
30
0
40
1.9999999999999929
0
CIRCLE
5
278
100
AcDbEntity
8
0
100
AcDbCircle
10
54.53165619614559
20
-149.83674272377871
30
0
40
2.0000000000000058
0
CIRCLE
5
279
100
AcDbEntity
8
0
100
AcDbCircle
10
-54.53165619614559
20
-149.83674272377871
30
0
40
2.0000000000000058
0
LWPOLYLINE
5
280
100
AcDbEntity
8
0
100
AcDbPolyline
90
10
70
1
43
0.0
10
0
20
6.4644662430788724
10
6.3639610306789285
20
12.828427273757805
42
0.41421356237309115
10
6.3639610306789294
20
14.242640836130903
10
6.0104076400856528
20
14.596194226724176
42
0.41421356237309848
10
4.5961940777125596
20
14.596194226724172
10
0
20
10.000000149011614
10
-4.5961940777125596
20
14.596194226724172
42
0.41421356237309592
10
-6.0104076400856519
20
14.596194226724178
10
-6.3639610306789285
20
14.242640836130903
42
0.41421356237309048
10
-6.3639610306789285
20
12.828427273757805
0
LWPOLYLINE
5
281
100
AcDbEntity
8
0
100
AcDbPolyline
90
20
70
1
43
0.0
10
-4.4194173824134522
20
2.6516089509134506
42
-0.41421356237309392
10
-4.4194173824134522
20
4.0658225132865446
10
-4.0658639917865473
20
4.4193759039134513
42
-0.41421356237309459
10
-2.6516504294134529
20
4.4193759039134513
10
0
20
1.7677254745000004
10
2.6516504294134529
20
4.4193759039134513
42
-0.41421356237309459
10
4.0658639917865473
20
4.4193759039134513
10
4.4194173824134531
20
4.0658225132865455
42
-0.41421356237309592
10
4.4194173824134531
20
2.6516089509134533
10
1.7677669530000006
20
-4.1478500001357332e-05
10
4.4463813872961762
20
-2.6786559127961778
42
-0.42174208824604542
10
4.4280240680135456
20
-4.1107621275873774
10
4.0654052058268437
20
-4.4552500466544878
42
-0.40672490217077945
10
2.6695489627363806
20
-4.4373573942363818
10
0
20
-1.7678084315000009
10
-2.6516504294134524
20
-4.4194588609134549
42
-0.41421356237309387
10
-4.0658639917865491
20
-4.4194588609134549
10
-4.4194173824134531
20
-4.0659054702865491
42
-0.41421356237309531
10
-4.4194173824134531
20
-2.6516919079134538
10
-1.7677669530000006
20
-4.1478500001357332e-05
0
LWPOLYLINE
5
282
100
AcDbEntity
8
0
100
AcDbPolyline
90
10
70
1
43
0.0
10
-6.0104076400856563
20
-14.596193928700956
10
-6.3639610306789285
20
-14.242640538107679
42
-0.41421356237309387
10
-6.3639610306789285
20
-12.828426975734581
10
-2.2204460492503131e-15
20
-6.4644659450556574
10
6.3639610306789294
20
-12.828426975734573
42
-0.41421356237309048
10
6.3639610306789285
20
-14.242640538107679
10
6.0104076400856519
20
-14.596193928700956
42
-0.41421356237309681
10
4.5961940777125578
20
-14.596193928700949
10
-1.1102230246251565e-15
20
-9.9999998509883881
10
-4.5961940777125596
20
-14.596193928700949
42
-0.41421356237309548
0
CIRCLE
5
283
100
AcDbEntity
8
0
100
AcDbCircle
10
66.552471476316981
20
-81.247384948683546
30
0
40
1.9999999999999929
0
CIRCLE
5
284
100
AcDbEntity
8
0
100
AcDbCircle
10
26.247384948683678
20
-121.55247147631682
30
0
40
2.0000000000000058
0
CIRCLE
5
285
100
AcDbEntity
8
0
100
AcDbCircle
10
26.247384948683692
20
121.55247147631685
30
0
40
2.0000000000000058
0
LWPOLYLINE
5
286
100
AcDbEntity
8
0
100
AcDbPolyline
90
10
70
1
43
0.0
10
-4.5961940777125569
20
19.394660395297233
10
0
20
14.798466317584678
10
4.5961940777125578
20
19.394660395297233
42
0.41421356237309503
10
4.5961940777125578
20
20.808873957670325
10
4.2426406871192848
20
21.162427348263591
42
0.41421356237309515
10
2.8284271247461867
20
21.162427348263606
10
0
20
18.334000223517414
10
-2.8284271247461881
20
21.162427348263606
42
0.41421356237309231
10
-4.2426406871192883
20
21.162427348263606
10
-4.5961940777125578
20
20.808873957670325
42
0.41421356237309531
0
CIRCLE
5
287
100
AcDbEntity
8
0
100
AcDbCircle
10
-94.836742723778826
20
-109.53165619614545
30
0
40
1.9999999999999929
0
CIRCLE
5
288
100
AcDbEntity
8
0
100
AcDbCircle
10
94.836742723778841
20
109.53165619614545
30
0
40
1.9999999999999929
0
CIRCLE
5
289
100
AcDbEntity
8
0
100
AcDbCircle
10
54.53165619614559
20
149.83674272377871
30
0
40
2.0000000000000058
0
CIRCLE
5
290
100
AcDbEntity
8
0
100
AcDbCircle
10
-40.000000596046455
20
-65
30
0
40
1.5000000000000002
0
CIRCLE
5
291
100
AcDbEntity
8
0
100
AcDbCircle
10
40.000000596046455
20
65
30
0
40
1.5000000000000002
0
CIRCLE
5
292
100
AcDbEntity
8
0
100
AcDbCircle
10
40.000000596046455
20
-65
30
0
40
1.5000000000000002
0
CIRCLE
5
293
100
AcDbEntity
8
0
100
AcDbCircle
10
-26.247384948683678
20
-121.55247147631682
30
0
40
2.0000000000000058
0
LWPOLYLINE
5
294
100
AcDbEntity
8
0
100
AcDbPolyline
90
4
70
1
43
0.0
10
28.500000447034843
20
15.000000223517421
42
-0.99999999999999989
10
31.500000447034839
20
15.000000223517418
10
31.500000447034839
20
-15.000000223517421
42
-0.99999999999999989
10
28.500000447034843
20
-15.000000223517418
0
LWPOLYLINE
5
295
100
AcDbEntity
8
0
100
AcDbPolyline
90
4
70
1
43
0.0
10
28.500000447034843
20
-34.999999776482582
42
-0.99999999999999989
10
31.500000447034839
20
-34.999999776482589
10
31.500000447034839
20
-65.000000223517432
42
-0.99999999999999989
10
28.500000447034843
20
-65.000000223517418
0
CIRCLE
5
296
100
AcDbEntity
8
0
100
AcDbCircle
10
-26.247384948683692
20
121.55247147631682
30
0
40
2.0000000000000058
0
LWPOLYLINE
5
297
100
AcDbEntity
8
0
100
AcDbPolyline
90
4
70
1
43
0.0
10
28.500000447034843
20
65.000000223517432
42
-0.99999999999999989
10
31.500000447034839
20
65.000000223517418
10
31.500000447034839
20
34.999999776482582
42
-0.99999999999999989
10
28.500000447034843
20
34.999999776482589
0
CIRCLE
5
298
100
AcDbEntity
8
0
100
AcDbCircle
10
40.000000596046455
20
0
30
0
40
1.5000000000000002
0
LWPOLYLINE
5
299
100
AcDbEntity
8
0
100
AcDbPolyline
90
4
70
1
43
0.0
10
-28.500000447034843
20
15.000000223517421
42
0.99999999999999989
10
-31.500000447034839
20
15.000000223517418
10
-31.500000447034839
20
-15.000000223517421
42
0.99999999999999989
10
-28.500000447034843
20
-15.000000223517418
0
LWPOLYLINE
5
300
100
AcDbEntity
8
0
100
AcDbPolyline
90
4
70
1
43
0.0
10
-28.500000447034843
20
-65.000000223517418
10
-28.500000447034843
20
-34.999999776482582
42
0.99999999999999989
10
-31.500000447034839
20
-34.999999776482589
10
-31.500000447034839
20
-65.000000223517432
42
0.99999999999999989
0
LWPOLYLINE
5
301
100
AcDbEntity
8
0
100
AcDbPolyline
90
4
70
1
43
0.0
10
-31.500000447034839
20
34.999999776482582
42
0.99999999999999989
10
-28.500000447034843
20
34.999999776482589
10
-28.500000447034843
20
65.000000223517432
42
0.99999999999999989
10
-31.500000447034839
20
65.000000223517418
0
CIRCLE
5
302
100
AcDbEntity
8
0
100
AcDbCircle
10
-40.000000596046455
20
0
30
0
40
1.5000000000000002
0
CIRCLE
5
303
100
AcDbEntity
8
0
100
AcDbCircle
10
-40.000000596046455
20
65
30
0
40
1.5000000000000002
0
CIRCLE
5
304
100
AcDbEntity
8
0
100
AcDbCircle
10
-15
20
-109.86618578659807
30
0
40
1.5000000000000049
0
CIRCLE
5
305
100
AcDbEntity
8
0
100
AcDbCircle
10
15
20
-109.86618578659807
30
0
40
1.4999999999999951
0
ENDSEC
0
SECTION
2
OBJECTS
0
DICTIONARY
5
C
100
AcDbDictionary
3
ACAD_GROUP
350
D
3
ACAD_MLINESTYLE
350
17
0
DICTIONARY
5
D
100
AcDbDictionary
0
DICTIONARY
5
1A
330
C
100
AcDbDictionary
0
DICTIONARY
5
17
100
AcDbDictionary
0
ENDSEC
0
EOF
